{"title":"White House Down 2013 DVDRip x264 AC3-UNiQUE","uid":9029214,"size":1718348996,"categoryP":"video","categoryS":"movies","magnet":"?xt=urn:btih:7559be9ba0273e6bba9232a361f35b788cff0bf0&amp;dn=White+House+Down+2013+DVDRip+x264+AC3-UNiQUE&amp;tr=udp%3A%2F%2Ftracker.openbittorrent.com%3A80&amp;tr=udp%3A%2F%2Fopen.demonii.com%3A1337&amp;tr=udp%3A%2F%2Ftracker.coppersurfer.tk%3A6969&amp;tr=udp%3A%2F%2Fexodus.desync.com%3A6969","seeders":5,"leechers":0,"uploader":"HeroMaster","files":-1,"time":1381426534,"description":"White House Down 2013 DVDRip x264 AC3-UNiQUE\n\n &lt;a href=&quot;\nhttp://www.imdb.com/title/tt2334879/&quot; rel=&quot;nofollow&quot; target=&quot;_NEW&quot;&gt;\nhttp://www.imdb.com/title/tt2334879/&lt;/a&gt;\n\n\nSource DVD9\n\n\nGeneral\nFormat: Matroska\nFormat version: Version 2\nFile size: 1.60 GiB\nDuration: 2h 6mn\nOverall bit rate mode: Variable\nOverall bit rate: 1 816 Kbps\nEncoded date: UTC 2013-10-10 13:07:56\n\nVideo\nID: 1\nFormat: AVC\nFormat/Info: Advanced Video Codec\nFormat profile: &lt;a class=&quot;__cf_email__&quot; href=&quot;/cdn-cgi/l/email-protection&quot; data-cfemail=&quot;86ceefe1eec6cab2a8b7&quot;&gt;[email&amp;#160;protected]&lt;/a&gt;&lt;script cf-hash='f9e31' type=&quot;text/javascript&quot;&gt;\n/* &lt;![CDATA[ */!function(){try{var t=&quot;currentScript&quot;in document?document.currentScript:function(){for(var t=document.getElementsByTagName(&quot;script&quot;),e=t.length;e--;)if(t[e].getAttribute(&quot;cf-hash&quot;))return t[e]}();if(t&amp;&amp;t.previousSibling){var e,r,n,i,c=t.previousSibling,a=c.getAttribute(&quot;data-cfemail&quot;);if(a){for(e=&quot;&quot;,r=parseInt(a.substr(0,2),16),n=2;a.length-n;n+=2)i=parseInt(a.substr(n,2),16)^r,e+=String.fromCharCode(i);e=document.createTextNode(e),c.parentNode.replaceChild(e,c)}}}catch(u){}}();/* ]]&gt; */&lt;/script&gt;\nFormat settings, CABAC: Yes\nFormat settings, ReFrames: 3 frames\nCodec ID: V_MPEG4/ISO/AVC\nDuration: 2h 6mn\nBit rate mode: Variable\nBit rate: 1 363 Kbps\nMaximum bit rate: 40.0 Mbps\nWidth: 720 pixels\nHeight: 288 pixels\nDisplay aspect ratio: 2.500\nFrame rate: 25.000 fps\nColor space: YUV\nChroma subsampling: 4:2:0\nBit depth: 8 bits\nScan type: Progressive\nBits/(Pixel*Frame): 0.263\nStream size: 1.17 GiB (73%)\nWriting library: x264 core 138 r2358 9e941d1\nDefault: Yes\nForced: No\n\nAudio\nID: 2\nFormat: AC-3\nFormat/Info: Audio Coding 3\nMode extension: CM (complete main)\nFormat settings, Endianness: Big\nCodec ID: A_AC3\nDuration: 2h 6mn\nBit rate mode: Constant\nBit rate: 448 Kbps\nChannel(s): 6 channels\nChannel positions: Front: L C R, Side: L R, LFE\nSampling rate: 48.0 KHz\nBit depth: 16 bits\nCompression mode: Lossy\nStream size: 404 MiB (25%)\nLanguage: English\nDefault: Yes\nForced: No\n\nText\nID: 3\nFormat: VobSub\nMuxing mode: zlib\nCodec ID: S_VOBSUB\nCodec ID/Info: The same subtitle format used on DVDs\nTitle: English - (Caption/Normal Size Char)\nLanguage: English\nDefault: No\nForced: No \n\n\nPlot: While on a tour of the White House with his young daughter, a Capitol policeman springs into action to save his child and protect the president \nfrom a heavily armed group of paramilitary invaders.\n\n\nPoster:\n\n &lt;a href=&quot;\nhttp://i.imgur.com/gD5vZTM.jpg&quot; rel=&quot;nofollow&quot; target=&quot;_NEW&quot;&gt;\nhttp://i.imgur.com/gD5vZTM.jpg&lt;/a&gt;\n\n\nScreenshots:\n\n &lt;a href=&quot;\nhttp://i.imgur.com/AVhitR4.jpg&quot; rel=&quot;nofollow&quot; target=&quot;_NEW&quot;&gt;\nhttp://i.imgur.com/AVhitR4.jpg&lt;/a&gt;\n\n\nSEED AND ENJOY!","torrent":{"xt":"urn:btih:7559be9ba0273e6bba9232a361f35b788cff0bf0","amp;dn":"White+House+Down+2013+DVDRip+x264+AC3-UNiQUE","amp;tr":["udp%3A%2F%2Ftracker.openbittorrent.com%3A80","udp%3A%2F%2Fopen.demonii.com%3A1337","udp%3A%2F%2Ftracker.coppersurfer.tk%3A6969","udp%3A%2F%2Fexodus.desync.com%3A6969"],"infoHash":"7559be9ba0273e6bba9232a361f35b788cff0bf0","infoHashBuffer":{"type":"Buffer","data":[117,89,190,155,160,39,62,107,186,146,50,163,97,243,91,120,140,255,11,240]},"announce":[],"urlList":[]}}